HIERARCHY
ROOT root
{
	OFFSET	0	13.1	24.9
	CHANNELS 6  Xposition Yposition Zposition Xrotation Yrotation Zrotation
	JOINT spine_1
	{
		OFFSET	0	9.99999	0
		CHANNELS 3  Xrotation Yrotation Zrotation
		JOINT spine_2
		{
			OFFSET	0	112	-10
			CHANNELS 3  Xrotation Yrotation Zrotation
			JOINT spine_3
			{
				OFFSET	0	206.5	19.3
				CHANNELS 3  Xrotation Yrotation Zrotation
				JOINT spine_4
				{
					OFFSET	0	110.4	14.6
					CHANNELS 3  Xrotation Yrotation Zrotation
					JOINT neck_1
					{
						OFFSET	0	71.8	-50.3
						CHANNELS 3  Xrotation Yrotation Zrotation
						JOINT neck_2
						{
							OFFSET	0	86.2	-25.8
							CHANNELS 3  Xrotation Yrotation Zrotation
							JOINT head_ee
							{
								OFFSET	0	179.8	-8.7
								CHANNELS 3  Xrotation Yrotation Zrotation
								End Site
								{
									OFFSET	1	0	0
								}
							}
						}
					}
					JOINT left_clavicle
					{
						OFFSET	-43.2	22.4	-70.8
						CHANNELS 3  Xrotation Yrotation Zrotation
						JOINT left_shoulder
						{
							OFFSET	-93.9	-5.79999	48.7
							CHANNELS 3  Xrotation Yrotation Zrotation
							JOINT left_elbow
							{
								OFFSET	-291.4	-30.8	15.2
								CHANNELS 3  Xrotation Yrotation Zrotation
								JOINT left_lowarm_twist
								{
									OFFSET	-110.7	-3.89999	13.6
									CHANNELS 3  Xrotation Yrotation Zrotation
									JOINT left_hand
									{
										OFFSET	-110.7	-3.89999	13.6
										CHANNELS 3  Xrotation Yrotation Zrotation
										JOINT left_ee
										{
											OFFSET	-80.8	-5.10001	12.1
											CHANNELS 3  Xrotation Yrotation Zrotation
											End Site
											{
												OFFSET	1	0	0
											}
										}
									}
								}
							}
						}
					}
					JOINT right_clavicle
					{
						OFFSET	43.2	22.4	-70.8
						CHANNELS 3  Xrotation Yrotation Zrotation
						JOINT right_shoulder
						{
							OFFSET	93.9	-5.79999	48.7
							CHANNELS 3  Xrotation Yrotation Zrotation
							JOINT right_elbow
							{
								OFFSET	291.4	-30.8	15.2
								CHANNELS 3  Xrotation Yrotation Zrotation
								JOINT right_lowarm_twist
								{
									OFFSET	110.7	-3.89999	13.6
									CHANNELS 3  Xrotation Yrotation Zrotation
									JOINT right_hand
									{
										OFFSET	110.7	-3.89999	13.6
										CHANNELS 3  Xrotation Yrotation Zrotation
										JOINT right_ee
										{
											OFFSET	80.8	-5.10001	12.1
											CHANNELS 3  Xrotation Yrotation Zrotation
											End Site
											{
												OFFSET	1	0	0
											}
										}
									}
								}
							}
						}
					}
				}
			}
		}
	}
	JOINT left_hip
	{
		OFFSET	-82.8	-127.5	0.300001
		CHANNELS 3  Xrotation Yrotation Zrotation
		JOINT left_knee
		{
			OFFSET	-28.2	-396.7	2.2
			CHANNELS 3  Xrotation Yrotation Zrotation
			JOINT left_ankle
			{
				OFFSET	-11.7	-411.3	35.4
				CHANNELS 3  Xrotation Yrotation Zrotation
				JOINT left_toes
				{
					OFFSET	0	-60	-88.6
					CHANNELS 3  Xrotation Yrotation Zrotation
					JOINT left_foot_ee
					{
						OFFSET	-22.5	-16.5	-42.2
						CHANNELS 3  Xrotation Yrotation Zrotation
						End Site
						{
							OFFSET	1	0	0
						}
					}
				}
			}
		}
	}
	JOINT right_hip
	{
		OFFSET	82.8	-127.5	0.300001
		CHANNELS 3  Xrotation Yrotation Zrotation
		JOINT right_knee
		{
			OFFSET	28.2	-396.7	2.2
			CHANNELS 3  Xrotation Yrotation Zrotation
			JOINT right_ankle
			{
				OFFSET	11.7	-411.3	35.4
				CHANNELS 3  Xrotation Yrotation Zrotation
				JOINT right_toes
				{
					OFFSET	0	-60	-88.6
					CHANNELS 3  Xrotation Yrotation Zrotation
					JOINT right_foot_ee
					{
						OFFSET	22.5	-16.5	-42.2
						CHANNELS 3  Xrotation Yrotation Zrotation
						End Site
						{
							OFFSET	1	0	0
						}
					}
				}
			}
		}
	}
}
MOTION
Frames: 13
Frame Time: 0.02
1142.51 740.475 -706.803 159.433 -61.8057 168.448 -0.950731 -0.158342 -1.88443 -0.948756 -0.0381317 -1.89069 -0.946103 0.390831 -1.85026 -0.950869 0.0937672 -1.88874 -28.124 -3.30194 -1.13038 -28.2043 -5.9275 -2.90655 -0.0 0.0 -0.0 4.07017 12.9171 8.27771 8.02164 -20.8632 59.3146 1.44367 -35.5684 0.463096 -67.4871 -6.22581 5.27263 -4.17571 14.3964 -20.5829 -0.0 0.0 -0.0 9.58725 22.843 -18.25 -21.3205 10.3396 -58.9372 0.504726 14.0379 -0.0621422 78.9005 3.71237 8.54658 3.01547 -22.578 -27.7464 0.0 0.0 0.0 0.770363 39.4021 -12.4649 -9.91227 0.279498 1.49365 26.9752 -7.46346 -3.66325 -14.9606 0.0 0.0 -0.0 0.0 -0.0 19.3971 20.8205 -13.4779 -41.1514 0.541637 -6.1587 -8.04129 -25.1955 -1.24707 10.0366 -0.0 -0.0 0.0 0.0 0.0 
1150.83 740.435 -707.252 160.869 -60.6983 169.907 -1.01644 -0.215701 -1.96937 -1.01428 -0.0899726 -1.9791 -1.00955 0.362492 -1.94771 -1.01484 0.0504013 -1.9805 -28.085 -2.53221 -0.569144 -28.1357 -4.65491 -1.94701 -0.0 0.0 -0.0 4.44744 12.9545 8.91005 8.44788 -20.4848 57.1748 1.51479 -36.8814 0.505125 -68.3752 -6.33885 5.28472 -4.60642 14.5152 -23.4294 -0.0 0.0 -0.0 9.5004 22.1074 -18.1202 -21.3999 9.88409 -58.6678 0.447367 12.4957 -0.048978 78.6848 3.68776 8.5339 3.16698 -22.8919 -28.8381 0.0 0.0 0.0 -0.546239 43.1977 -11.534 -6.18097 0.204694 0.926053 26.8013 -9.39578 -3.67604 -15.1713 0.0 0.0 -0.0 0.0 -0.0 20.948 18.3902 -13.7943 -34.5013 0.154492 -5.21342 -12.0988 -25.6021 -1.88997 9.65995 -0.0 -0.0 0.0 0.0 0.0 
1167.71 737.871 -707.319 161.323 -59.8768 170.638 -0.897888 -0.391506 -2.0284 -0.895636 -0.261668 -2.04919 -0.884422 0.20665 -2.05546 -0.890297 -0.120494 -2.0623 -26.979 -2.06579 -0.201222 -27.0131 -3.89719 -1.30134 -0.0 0.0 -0.0 4.13956 11.9981 8.37878 7.62236 -21.8461 55.3443 1.60294 -38.4484 0.558994 -69.3412 -6.46198 5.29586 -5.05103 13.7922 -27.0313 -0.0 0.0 -0.0 9.21799 21.2448 -17.5628 -22.5452 9.43752 -58.472 0.374 10.4963 -0.0343537 78.7782 3.69842 8.5394 3.39147 -22.978 -30.3943 0.0 0.0 0.0 -4.37604 42.7936 -9.26369 -4.62149 0.162501 0.690453 26.8695 -10.5166 -3.70509 -14.4187 0.0 0.0 -0.0 0.0 -0.0 22.3045 18.3007 -14.2614 -30.8746 -0.00957518 -4.68123 -14.6198 -23.7663 -2.26847 7.97271 -0.0 -0.0 0.0 0.0 0.0 
1176.77 737.125 -710.075 162.036 -59.6926 171.136 -0.906466 -0.50995 -2.01559 -0.904286 -0.380687 -2.04394 -0.888733 0.0895858 -2.07714 -0.894674 -0.239513 -2.06524 -26.9711 -1.7991 -0.96561 -26.9897 -3.08879 -1.86962 -0.0 0.0 -0.0 4.47921 11.4504 8.94984 8.11032 -22.0923 53.9504 1.68039 -39.7712 0.607852 -69.7574 -6.51506 5.30001 -5.20141 15.0267 -27.2279 -0.0 0.0 -0.0 8.9848 21.7203 -17.0057 -22.7795 9.42956 -58.3118 0.327024 9.20207 -0.0263179 79.7923 3.81462 8.59802 3.42871 -23.262 -30.7079 0.0 0.0 0.0 -5.91588 46.1482 -7.71722 -1.16505 0.0462152 0.172817 26.5791 -11.328 -3.68766 -14.2693 0.0 0.0 -0.0 0.0 -0.0 22.4867 18.4288 -14.531 -26.9121 -0.149898 -4.08942 -12.197 -22.1359 -1.87452 8.50699 -0.0 -0.0 0.0 0.0 0.0 
1191.08 732.874 -709.059 161.277 -60.0037 170.195 -0.863682 -0.513471 -2.0388 -0.861451 -0.382724 -2.06733 -0.845655 0.0912917 -2.10046 -0.85173 -0.241509 -2.08853 -26.3094 -1.29013 0.556521 -26.3246 -2.70605 -0.161769 -0.0 0.0 -0.0 4.48593 11.083 8.95718 7.98054 -22.5651 53.0471 1.80552 -41.8055 0.689609 -70.5841 -6.62058 5.30712 -5.61439 15.9853 -29.4754 -0.0 0.0 -0.0 8.76293 20.7209 -16.595 -23.6675 8.70515 -57.6909 0.28597 8.06313 -0.0201553 79.1825 3.74462 8.56302 3.40983 -25.3342 -30.9584 0.0 0.0 0.0 -8.36503 46.8859 -6.55212 0.161206 -0.00667163 -0.0238388 26.9298 -14.4884 -3.80107 -13.6169 0.0 0.0 -0.0 0.0 -0.0 24.2829 18.3951 -15.0845 -23.6796 -0.233833 -3.60051 -14.7822 -20.9735 -2.26698 7.05007 -0.0 -0.0 0.0 0.0 0.0 
1200.55 728.927 -710.489 162.366 -59.65 171.08 -0.900683 -0.303441 -2.17073 -0.898076 -0.164731 -2.18563 -0.889812 0.33212 -2.16653 -0.896362 -0.0141256 -2.19178 -26.4446 -0.924807 1.29969 -26.4517 -2.29493 0.721249 -0.0 0.0 -0.0 5.07903 11.2585 9.98007 8.94968 -22.5508 52.0218 1.9758 -44.3799 0.805969 -71.4365 -6.72946 5.31284 -5.74827 16.7896 -29.8207 -0.0 0.0 -0.0 8.75873 20.1766 -16.6279 -24.2973 8.81921 -57.3712 0.244269 6.89961 -0.0147253 79.5188 3.78318 8.58241 3.17501 -26.283 -29.5468 0.0 0.0 0.0 -9.61515 46.1274 -5.13333 1.63511 -0.070778 -0.240917 27.6645 -14.1945 -3.87954 -13.6169 0.0 0.0 -0.0 0.0 -0.0 25.2588 18.3396 -15.3698 -18.8448 -0.307597 -2.86252 -13.7217 -15.675 -2.06969 6.20771 -0.0 -0.0 0.0 0.0 0.0 
1207.41 725.196 -708.958 162.315 -60.114 170.771 -1.07896 -0.363311 -2.19724 -1.0763 -0.222794 -2.21589 -1.06546 0.289108 -2.20822 -1.07225 -0.0631783 -2.22616 -25.3722 -0.84481 1.11247 -25.378 -2.08939 0.602573 -0.0 0.0 -0.0 5.57187 10.7679 10.8386 9.5963 -21.1922 50.8613 2.14555 -46.7389 0.927192 -72.4634 -6.8607 5.31756 -6.01235 17.307 -31.3279 -0.0 0.0 -0.0 8.79675 19.6604 -16.7506 -24.8153 8.82185 -57.2407 0.205957 5.82559 -0.0104794 80.2815 3.87104 8.62556 3.09433 -25.3322 -28.8387 0.0 0.0 0.0 -11.3411 47.3359 -3.82083 4.48144 -0.210315 -0.65524 27.3035 -14.9285 -3.8563 -14.0367 0.0 0.0 -0.0 0.0 -0.0 26.7251 18.6758 -15.2651 -13.9824 -0.31878 -2.11679 -14.636 -9.59556 -2.19345 5.64085 -0.0 -0.0 0.0 0.0 0.0 
1213.49 723.718 -707.614 163.546 -60.0896 171.61 -1.17271 -0.260312 -2.0215 -1.17045 -0.131178 -2.03396 -1.16394 0.340247 -2.0096 -1.16958 0.0186667 -2.0381 -25.492 -0.476845 1.54416 -25.4905 -1.55558 1.19108 -0.0 0.0 -0.0 5.75046 10.7427 11.1507 10.463 -20.7654 50.1021 2.29906 -48.7084 1.0408 -73.6243 -7.00907 5.32005 -6.1587 19.1026 -30.9042 -0.0 0.0 -0.0 8.84974 19.6218 -16.8707 -24.886 8.84214 -57.3473 0.207353 5.86481 -0.0106216 79.9429 3.83196 8.60655 2.72733 -27.5517 -26.8814 0.0 0.0 0.0 -12.3894 46.9592 -2.61423 6.05668 -0.296357 -0.881469 27.7983 -15.5306 -3.93029 -13.6425 0.0 0.0 -0.0 0.0 -0.0 27.8932 19.4447 -16.1981 -9.24081 -0.268768 -1.39118 -14.5743 -5.4086 -2.18751 5.76264 -0.0 -0.0 0.0 0.0 0.0 
1227.68 719.657 -705.733 164.136 -59.5926 172.309 -1.22747 -0.139697 -1.98763 -1.22527 -0.0129621 -1.99248 -1.22315 0.447817 -1.94157 -1.22839 0.135626 -1.98791 -25.447 -0.359867 1.49409 -25.4445 -1.31066 1.20465 -0.0 0.0 -0.0 5.96085 10.7794 11.518 11.1012 -20.0297 49.3545 2.42247 -50.1872 1.13457 -74.4108 -7.1096 5.32001 -6.29808 20.991 -30.2882 -0.0 0.0 -0.0 8.80985 19.6024 -16.7838 -25.1659 8.77785 -57.4404 0.202188 5.71971 -0.0101004 80.0584 3.84528 8.61306 2.44174 -29.0995 -25.4012 0.0 0.0 0.0 -12.8502 46.8976 -2.52064 6.74184 -0.335722 -0.97913 27.9186 -17.1777 -3.99175 -13.8213 0.0 0.0 -0.0 0.0 -0.0 28.5197 19.6987 -16.5923 -6.01568 -0.200526 -0.901031 -15.0996 -0.593062 -2.28659 5.78246 -0.0 -0.0 0.0 0.0 0.0 
1239.58 711.478 -703.665 164.197 -59.4832 172.259 -1.31122 -0.113674 -2.05172 -1.30887 0.0170843 -2.05479 -1.30771 0.494422 -1.99452 -1.31322 0.17329 -2.04755 -24.4874 -0.0806626 1.53064 -24.4822 -0.813291 1.38074 -0.0 0.0 -0.0 5.52989 10.6695 10.7665 11.4504 -19.6314 49.5381 2.71225 -53.3307 1.36226 -74.9486 -7.1783 5.31919 -5.9139 21.5646 -27.1597 -0.0 0.0 -0.0 8.70964 19.4422 -16.574 -25.5841 8.32732 -57.5705 0.191209 5.411 -0.00903554 79.5771 3.78987 8.58575 2.18353 -29.8219 -23.9858 0.0 0.0 0.0 -13.3933 46.2602 -2.62307 5.7194 -0.27741 -0.833226 30.2823 -19.876 -4.35566 -14.1208 0.0 0.0 -0.0 0.0 -0.0 29.148 19.8569 -16.8127 -4.51 -0.159239 -0.673654 -16.1415 4.62352 -2.48903 5.82211 -0.0 -0.0 0.0 0.0 0.0 
1252.67 709.913 -700.354 163.328 -60.5024 171.352 -1.41634 -0.177755 -2.04291 -1.41402 -0.0474272 -2.05007 -1.4104 0.434138 -2.00416 -1.41599 0.112239 -2.04755 -23.0955 -0.594002 1.49382 -23.0955 -1.82465 1.10543 -0.0 0.0 -0.0 5.78455 10.9895 11.206 11.6894 -19.109 49.3838 2.86919 -54.8602 1.48939 -76.2762 -7.34784 5.31437 -6.15985 24.1171 -26.6685 -0.0 0.0 -0.0 8.78967 18.8481 -16.793 -25.461 7.30389 -58.0075 0.209394 5.92213 -0.0108312 79.9514 3.83294 8.60703 1.94498 -29.5849 -22.522 0.0 0.0 0.0 -14.0208 45.4158 -2.9251 5.2063 -0.249133 -0.759629 30.6706 -22.5508 -4.5062 -14.0306 0.0 0.0 -0.0 0.0 -0.0 30.1489 19.9776 -17.2701 -3.86447 -0.13971 -0.576509 -17.2995 6.5235 -2.69227 5.974 -0.0 -0.0 0.0 0.0 0.0 
1273.7 707.828 -695.391 162.096 -61.034 170.293 -1.83111 -0.263188 -2.00917 -1.82887 -0.134833 -2.02184 -1.82189 0.356834 -1.99467 -1.82744 0.0374016 -2.02598 -22.6387 -0.124386 1.23432 -22.6357 -0.810364 1.08677 -0.0 0.0 -0.0 6.00401 11.3533 11.5802 12.2002 -18.1733 49.6546 3.24276 -58.0838 1.80092 -78.009 -7.56874 5.30212 -6.02574 27.1137 -23.2834 -0.0 0.0 -0.0 8.59178 17.4734 -16.4479 -25.5391 6.64659 -58.3006 0.220318 6.2287 -0.0119873 79.2623 3.75376 8.56764 1.74445 -29.5269 -21.3331 0.0 0.0 0.0 -15.4966 44.7044 -3.31178 4.5974 -0.216436 -0.671972 32.3586 -24.6966 -4.7972 -14.1417 0.0 0.0 -0.0 0.0 -0.0 30.9621 20.1214 -17.5518 -5.63321 -0.190606 -0.843174 -18.2434 10.2378 -2.89783 7.11619 -0.0 -0.0 0.0 0.0 0.0 
1290.17 701.583 -693.866 161.413 -61.6333 169.079 -2.11033 -0.298935 -2.00248 -2.10812 -0.170933 -2.01744 -2.09967 0.330408 -1.99753 -2.10524 0.010856 -2.02463 -22.5853 0.490339 1.25496 -22.581 0.365398 1.38976 -0.0 0.0 -0.0 5.80645 11.0782 11.2425 12.1235 -17.8516 50.5792 3.55116 -60.3685 2.06596 -79.2218 -7.72303 5.28955 -5.75182 28.9977 -20.0917 -0.0 0.0 -0.0 8.5588 17.1874 -16.3932 -25.3641 6.16994 -57.7216 0.236913 6.69376 -0.0138549 79.3937 3.76882 8.57522 1.73529 -29.5942 -21.2953 0.0 0.0 0.0 -15.5425 44.3809 -3.49038 0.992507 -0.0421407 -0.146473 36.1202 -26.3834 -5.29561 -14.7596 0.0 0.0 -0.0 0.0 -0.0 31.4878 20.4105 -16.9075 -6.35339 -0.208964 -0.952169 -17.4534 12.9669 -2.82061 7.85153 -0.0 -0.0 0.0 0.0 0.0 
